<svg width="328.9110107421875" height="328.9110107421875" xmlns="http://www.w3.org/2000/svg" fill="#292926">
 <g class="currentLayer">
  <title>Layer 1</title>
  <path class="selected" id="svg_33" d="m310.199,18.710004c-12.464,-12.468 -27.549,-18.703 -45.248,-18.703l-200.997,0c-17.703,0 -32.79,6.235 -45.253,18.704c-12.466,12.466 -18.701,27.55 -18.701,45.249l0,200.991c0,17.515 6.232,32.552 18.701,45.11c12.467,12.566 27.553,18.843 45.253,18.843l201.004,0c17.699,0 32.777,-6.276 45.248,-18.843c12.47,-12.559 18.705,-27.596 18.705,-45.11l0,-200.991c0,-17.699 -6.245,-32.783 -18.712,-45.25zm-17.837,246.25c0,7.614 -2.673,14.089 -8.001,19.414c-5.324,5.332 -11.799,7.994 -19.41,7.994l-200.997,0c-7.614,0 -14.082,-2.662 -19.414,-7.994c-5.33,-5.325 -7.992,-11.8 -7.992,-19.414l0,-200.995c0,-7.613 2.662,-14.086 7.992,-19.414c5.327,-5.327 11.8,-7.994 19.414,-7.994l201.004,0c7.61,0 14.086,2.663 19.41,7.994c5.325,5.328 7.994,11.801 7.994,19.414l0,200.995z"/>
  <g id="svg_5"/>
  <g id="svg_6"/>
  <g id="svg_7"/>
  <g id="svg_8"/>
  <g id="svg_9"/>
  <g id="svg_10"/>
  <g id="svg_11"/>
  <g id="svg_12"/>
  <g id="svg_13"/>
  <g id="svg_14"/>
  <g id="svg_15"/>
  <g id="svg_16"/>
  <g id="svg_17"/>
  <g id="svg_18"/>
  <g id="svg_19"/>
  <g stroke="null" id="svg_55">
   <rect stroke="null" transform="matrix(0.4732589936516801,0,0,0.47704596550465417,-564.2988947457951,-709.6329917627006) " fill="none" y="1667.838541" x="1339.150224" height="328.911011" width="328.911011" id="svg_52"/>
   <g stroke="null" transform="matrix(0.4732589936516801,0,0,0.47704596550465417,-564.2988947457951,-709.6329917627006) " id="svg_54" class="currentLayer">
    <title stroke="null" transform="translate(0,-18.228017807006836) translate(20.21112823486328,2.2737367544323206e-13) translate(2.2737367544323206e-13,-25.4346981048584) translate(31.716934204101562,0) translate(-7.20766544342041,0) translate(0,-2.1314077377319336) translate(1.4415112733840942,-49.73979949951172) translate(-25.705698013305664,50.72262191772461) translate(-187.54934692382812,170.14842224121094) translate(1506.243408203125,0) translate(0,1542.50146484375) ">Layer 1</title>
    <path stroke="null" id="svg_51" d="m1733.726282,1706.098586l-31.409,-31.409c-4.568,-4.567 -9.996,-6.851 -16.279,-6.851c-6.275,0 -11.707,2.284 -16.271,6.851l-184.726,184.725l-75.084,-75.089c-4.569,-4.57 -9.995,-6.851 -16.274,-6.851c-6.28,0 -11.704,2.281 -16.274,6.851l-31.405,31.405c-4.568,4.568 -6.854,9.994 -6.854,16.277c0,6.28 2.286,11.704 6.854,16.274l122.767,122.767c4.569,4.571 9.995,6.851 16.274,6.851c6.279,0 11.704,-2.279 16.274,-6.851l232.404,-232.403c4.565,-4.567 6.854,-9.994 6.854,-16.274s-2.283,-11.706 -6.851,-16.273z"/>
    <g stroke="null" id="svg_50"/>
    <g stroke="null" id="svg_49"/>
    <g stroke="null" id="svg_48"/>
    <g stroke="null" id="svg_47"/>
    <g stroke="null" id="svg_46"/>
    <g stroke="null" id="svg_45"/>
    <g stroke="null" id="svg_44"/>
    <g stroke="null" id="svg_43"/>
    <g stroke="null" id="svg_42"/>
    <g stroke="null" id="svg_41"/>
    <g stroke="null" id="svg_40"/>
    <g stroke="null" id="svg_39"/>
    <g stroke="null" id="svg_38"/>
    <g stroke="null" id="svg_37"/>
    <g stroke="null" id="svg_36"/>
   </g>
  </g>
 </g>

 <g>
  <title>Layer 2</title>
  <rect fill="none" y="0" x="0" height="100%" width="100%" id="backgroundrect"/>
 </g>
 <g>
  <title>background</title>
  <rect fill="none" id="canvas_background" height="402" width="582" y="-1" x="-1"/>
 </g>
</svg>
